{
	"asset":{
		"generator":"Khronos glTF Blender I/O v4.3.47",
		"version":"2.0"
	},
	"scene":0,
	"scenes":[
		{
			"name":"Scene",
			"nodes":[
				0
			]
		}
	],
	"nodes":[
		{
			"mesh":0,
			"name":"Mesh1_Mesh1.032",
			"rotation":[
				0.7071068286895752,
				0,
				0,
				0.7071068286895752
			]
		}
	],
	"materials":[
		{
			"doubleSided":true,
			"name":"Material.001",
			"pbrMetallicRoughness":{
				"baseColorTexture":{
					"index":0
				},
				"metallicFactor":0,
				"roughnessFactor":0.5
			}
		}
	],
	"meshes":[
		{
			"name":"Mesh1_Mesh1.032",
			"primitives":[
				{
					"attributes":{
						"POSITION":0,
						"NORMAL":1,
						"TEXCOORD_0":2
					},
					"indices":3,
					"material":0
				}
			]
		}
	],
	"textures":[
		{
			"sampler":0,
			"source":0
		}
	],
	"images":[
		{
			"mimeType":"image/png",
			"name":"texture_0",
			"uri":"texture_0.png"
		}
	],
	"accessors":[
		{
			"bufferView":0,
			"componentType":5126,
			"count":12170,
			"max":[
				0.38483700156211853,
				0.2532390058040619,
				1.0026960372924805
			],
			"min":[
				-0.38892900943756104,
				-0.25952601432800293,
				-0.993184506893158
			],
			"type":"VEC3"
		},
		{
			"bufferView":1,
			"componentType":5126,
			"count":12170,
			"type":"VEC3"
		},
		{
			"bufferView":2,
			"componentType":5126,
			"count":12170,
			"type":"VEC2"
		},
		{
			"bufferView":3,
			"componentType":5123,
			"count":54273,
			"type":"SCALAR"
		}
	],
	"bufferViews":[
		{
			"buffer":0,
			"byteLength":146040,
			"byteOffset":0,
			"target":34962
		},
		{
			"buffer":0,
			"byteLength":146040,
			"byteOffset":146040,
			"target":34962
		},
		{
			"buffer":0,
			"byteLength":97360,
			"byteOffset":292080,
			"target":34962
		},
		{
			"buffer":0,
			"byteLength":108546,
			"byteOffset":389440,
			"target":34963
		}
	],
	"samplers":[
		{
			"magFilter":9729,
			"minFilter":9987
		}
	],
	"buffers":[
		{
			"byteLength":497988,
			"uri":"me.bin"
		}
	]
}
